<svg xmlns="http://www.w3.org/2000/svg" version="1.1" xmlns:xlink="http://www.w3.org/1999/xlink" viewBox="0 0 200 200"><rect width="200" height="200" fill="url('#gradient')"></rect><defs><linearGradient id="gradient" gradientTransform="rotate(56 0.5 0.5)"><stop offset="0%" stop-color="#3c73c0"></stop><stop offset="100%" stop-color="#384b85"></stop></linearGradient></defs><g><g fill="#ffffff" transform="matrix(4.492870201096892,0,0,4.492870201096892,11.175445463757626,131.9485637431171)" stroke="#384b85" stroke-width="0.95"><path d="M5.75 0L1.07 0L1.07-14.22L5.65-14.22Q7.54-14.22 9.04-13.36Q10.55-12.51 11.39-10.95Q12.24-9.39 12.25-7.46L12.25-7.46L12.25-6.81Q12.25-4.85 11.42-3.31Q10.60-1.76 9.10-0.88Q7.60-0.01 5.75 0L5.75 0ZM5.65-11.57L4.50-11.57L4.50-2.64L5.69-2.64Q7.17-2.64 7.96-3.69Q8.75-4.74 8.75-6.81L8.75-6.81L8.75-7.42Q8.75-9.48 7.96-10.53Q7.17-11.57 5.65-11.57L5.65-11.57ZM18.68 0L14.00 0L14.00-14.22L18.58-14.22Q20.47-14.22 21.97-13.36Q23.48-12.51 24.32-10.95Q25.17-9.39 25.18-7.46L25.18-7.46L25.18-6.81Q25.18-4.85 24.35-3.31Q23.53-1.76 22.03-0.88Q20.53-0.01 18.68 0L18.68 0ZM18.58-11.57L17.43-11.57L17.43-2.64L18.62-2.64Q20.10-2.64 20.89-3.69Q21.68-4.74 21.68-6.81L21.68-6.81L21.68-7.42Q21.68-9.48 20.89-10.53Q20.10-11.57 18.58-11.57L18.58-11.57ZM35.03-4.81L38.44-4.81Q38.37-3.33 37.64-2.19Q36.90-1.05 35.58-0.43Q34.26 0.20 32.56 0.20L32.56 0.20Q29.76 0.20 28.14-1.63Q26.53-3.46 26.53-6.79L26.53-6.79L26.53-7.49Q26.53-9.58 27.26-11.15Q27.99-12.71 29.36-13.57Q30.72-14.42 32.52-14.42L32.52-14.42Q35.11-14.42 36.68-13.06Q38.25-11.70 38.47-9.31L38.47-9.31L35.05-9.31Q35.01-10.61 34.39-11.17Q33.78-11.74 32.52-11.74L32.52-11.74Q31.24-11.74 30.64-10.78Q30.05-9.82 30.02-7.72L30.02-7.72L30.02-6.72Q30.02-4.44 30.59-3.47Q31.16-2.49 32.56-2.49L32.56-2.49Q33.74-2.49 34.37-3.05Q34.99-3.60 35.03-4.81L35.03-4.81Z"></path></g></g></svg>